<?xml version="1.0" encoding="UTF-8"?>
<svg id="Ebene_1" data-name="Ebene 1" xmlns="http://www.w3.org/2000/svg" viewBox="0 0 2902.68 2902.68">
  <defs>
    <style>
      .cls-1 {
        fill: none;
        stroke: #000;
        stroke-width: .5px;
      }
    </style>
  </defs>
  <g id="Symbols">
    <g id="Regular-S">
      <path class="cls-1" d="M117.1,2503c0,101.15,56.2,157.35,155.74,157.35,35.32,0,69.04-11.24,115.6-36.93l510.57-271.34V234.3c-22.48,11.24-46.56,24.09-69.04,36.93L235.91,606.8c-80.28,44.96-118.81,112.39-118.81,202.3v1693.89ZM1086.87,2319.96l637.42,350.02c19.27,11.24,38.53,19.27,57.8,25.69V618.04l-626.18-383.74c-20.87-12.84-44.96-22.48-69.04-27.29v2112.95ZM1969.94,2690.85c11.24-3.21,24.08-8.03,33.72-14.45l661.5-372.5c81.88-44.96,120.42-114,120.42-203.91V406.1c0-101.15-57.8-157.35-157.35-157.35-33.72,0-69.04,11.24-114,35.32l-544.29,303.45v2103.32Z"/>
    </g>
  </g>
</svg>